<svg id="Layer_1" data-name="Layer 1" xmlns="http://www.w3.org/2000/svg" viewBox="0 0 953.62 273.59"><title>Untitled-4</title><g id="Perspective_Text" data-name="Perspective Text"><path d="M867.59,464.28l128.57-25.12.69.79v38.77l-.69,1L890.61,492v82.21l105.55,8.8.69,1V622.8l-.69.8L867.59,602.78l-.39-.75V465Zm31.06,54.09L986,513.86l.57.74v38.12l-.57.89-87.32-2.35-.45-.75V519Z" transform="translate(-867.2 -389.27)"/><path d="M1013.49,434.29l219.61-43.51c27.85-5.52,48.2,4.05,59.71,29.57A44.17,44.17,0,0,1,1297,439.2V611.87c0,19.74-9.79,35.34-28.68,46.42-12.16,4.34-23.66,5.55-34.55,3.79l-220.24-35.67-.73-1.07v-190ZM1059,471.06V591.81l148.91,13.33V453.33Z" transform="translate(-867.2 -389.27)"/></g><text x="-867.2" y="-389.27"/></svg>